<?xml version="1.0" encoding="UTF-8" standalone="no"?>
<!DOCTYPE svg PUBLIC "-//W3C//DTD SVG 1.1//EN" "http://www.w3.org/Graphics/SVG/1.1/DTD/svg11.dtd">
<svg width="100%" height="100%" viewBox="360 340 820 310" version="1.1" xmlns="http://www.w3.org/2000/svg" xmlns:xlink="http://www.w3.org/1999/xlink" xml:space="preserve" xmlns:serif="http://www.serif.com/" style="fill-rule:evenodd;clip-rule:evenodd;stroke-linejoin:round;stroke-miterlimit:2;">
    <g>
        <g transform="matrix(0.970497,0,0,0.970497,435.053,13.3446)">
            <path d="M633.171,619.657L633.171,534.15L633.191,534.15C634.163,489.06 670.879,452.705 716.11,452.316L716.11,452.313L728.184,452.313L728.184,473.974L716.11,473.974L716.11,473.959C682.505,474.349 655.288,501.518 654.819,535.103L654.819,619.657L633.171,619.657Z"/>
        </g>
        <g transform="matrix(0.970497,0,0,0.970497,20.8131,13.3446)">
            <path d="M776.204,594.93C761.043,610.198 740.039,619.657 716.843,619.657C670.663,619.657 633.171,582.165 633.171,535.985C633.171,489.805 670.663,452.313 716.843,452.313C740.039,452.313 761.043,461.772 776.204,477.04L760.904,492.34C749.66,480.99 734.067,473.955 716.843,473.955C682.608,473.955 654.813,501.75 654.813,535.985C654.813,570.22 682.608,598.015 716.843,598.015C734.067,598.015 749.66,590.98 760.904,579.629L776.204,594.93Z"/>
        </g>
        <g transform="matrix(0.970497,0,0,0.970497,-191.174,-67.8588)">
            <path d="M633.171,557.608L602.702,557.608L602.702,535.985L633.171,535.985L633.171,535.272L633.174,535.272C633.558,489.42 670.901,452.313 716.843,452.313L728.159,452.313L728.159,473.974L716.843,473.974L716.843,473.955C682.608,473.955 654.813,501.75 654.813,535.985L728.159,535.985L728.159,557.608L654.766,557.608L654.766,703.329L633.171,703.329L633.171,557.608Z"/>
        </g>
        <g transform="matrix(0.970497,0,0,0.970497,216.188,13.3446)">
            <path d="M633.171,619.657L633.171,368.641L654.841,368.641L654.841,479.823C670.154,462.93 692.269,452.313 716.843,452.313C762.761,452.313 800.089,489.381 800.511,535.199L800.515,535.199L800.515,619.657L778.873,619.657L778.873,535.985C778.873,501.75 751.078,473.955 716.843,473.955C683.237,473.955 655.837,500.738 654.841,534.104L654.841,619.657L633.171,619.657Z"/>
        </g>
        <g transform="matrix(1.00682,0,0,1.07718,-4.18407,-46.7077)">
            <rect x="559.088" y="463.267" width="20.826" height="150.771"/>
        </g>
    </g>
</svg>
